<svg width="104" height="72" viewBox="0 0 104 72" fill="none" xmlns="http://www.w3.org/2000/svg">
<g clip-path="url(#clip0_5_3)">
<path d="M6 0.499985H98C101.038 0.499985 103.5 2.96242 103.5 5.99998V66C103.5 69.0376 101.038 71.5 98 71.5H6C2.96243 71.5 0.5 69.0376 0.5 66V5.99998C0.5 2.96242 2.96243 0.499985 6 0.499985Z" fill="white" stroke="#0D0F12" stroke-miterlimit="10"/>
<rect y="56" width="104" height="16" fill="#0D0F12"/>
<path d="M22.4088 67.1151C22.0977 67.1151 21.8154 67.0565 21.5618 66.9393C21.3083 66.82 21.1069 66.6484 20.9578 66.4247C20.8086 66.1989 20.7341 65.9261 20.7341 65.6065C20.7341 65.3253 20.7895 65.0973 20.9003 64.9226C21.0111 64.7457 21.1591 64.6072 21.3445 64.5071C21.5299 64.407 21.7344 64.3324 21.9581 64.2834C22.184 64.2322 22.4109 64.1918 22.6389 64.1619C22.9372 64.1236 23.179 64.0948 23.3644 64.0756C23.5519 64.0543 23.6883 64.0192 23.7735 63.9702C23.8608 63.9212 23.9045 63.8359 23.9045 63.7145V63.6889C23.9045 63.3736 23.8182 63.1286 23.6456 62.9538C23.4752 62.7791 23.2163 62.6918 22.869 62.6918C22.5089 62.6918 22.2266 62.7706 22.0221 62.9283C21.8175 63.0859 21.6737 63.2543 21.5906 63.4332L20.8747 63.1776C21.0025 62.8793 21.173 62.647 21.3861 62.4808C21.6013 62.3125 21.8356 62.1953 22.0892 62.1293C22.3449 62.0611 22.5963 62.027 22.8434 62.027C23.0011 62.027 23.1822 62.0462 23.3868 62.0845C23.5934 62.1207 23.7927 62.1964 23.9844 62.3114C24.1783 62.4265 24.3392 62.6001 24.467 62.8324C24.5949 63.0646 24.6588 63.3757 24.6588 63.7656V67H23.9045V66.3352H23.8662C23.815 66.4418 23.7298 66.5558 23.6105 66.6772C23.4912 66.7987 23.3324 66.902 23.1343 66.9872C22.9361 67.0724 22.6943 67.1151 22.4088 67.1151ZM22.5238 66.4375C22.8221 66.4375 23.0736 66.3789 23.2781 66.2617C23.4848 66.1445 23.6403 65.9933 23.7447 65.8079C23.8513 65.6225 23.9045 65.4276 23.9045 65.223V64.5327C23.8726 64.571 23.8023 64.6062 23.6936 64.6381C23.5871 64.668 23.4635 64.6946 23.3229 64.718C23.1844 64.7393 23.0491 64.7585 22.917 64.7756C22.787 64.7905 22.6815 64.8033 22.6006 64.8139C22.4045 64.8395 22.2213 64.881 22.0508 64.9386C21.8825 64.994 21.7461 65.0781 21.6417 65.1911C21.5395 65.3018 21.4883 65.4531 21.4883 65.6449C21.4883 65.907 21.5853 66.1051 21.7792 66.2393C21.9752 66.3714 22.2234 66.4375 22.5238 66.4375ZM27.4755 67V62.0909H28.2297V67H27.4755ZM27.859 61.2727C27.712 61.2727 27.5852 61.2227 27.4787 61.1225C27.3743 61.0224 27.3221 60.902 27.3221 60.7614C27.3221 60.6207 27.3743 60.5004 27.4787 60.4002C27.5852 60.3001 27.712 60.25 27.859 60.25C28.006 60.25 28.1317 60.3001 28.2361 60.4002C28.3427 60.5004 28.3959 60.6207 28.3959 60.7614C28.3959 60.902 28.3427 61.0224 28.2361 61.1225C28.1317 61.2227 28.006 61.2727 27.859 61.2727ZM31.8055 60.4545V67H31.0512V60.4545H31.8055ZM36.0716 67.1151C35.7605 67.1151 35.4782 67.0565 35.2246 66.9393C34.9711 66.82 34.7697 66.6484 34.6206 66.4247C34.4714 66.1989 34.3968 65.9261 34.3968 65.6065C34.3968 65.3253 34.4522 65.0973 34.563 64.9226C34.6738 64.7457 34.8219 64.6072 35.0073 64.5071C35.1927 64.407 35.3972 64.3324 35.6209 64.2834C35.8468 64.2322 36.0737 64.1918 36.3017 64.1619C36.6 64.1236 36.8418 64.0948 37.0272 64.0756C37.2147 64.0543 37.351 64.0192 37.4363 63.9702C37.5236 63.9212 37.5673 63.8359 37.5673 63.7145V63.6889C37.5673 63.3736 37.481 63.1286 37.3084 62.9538C37.138 62.7791 36.8791 62.6918 36.5318 62.6918C36.1717 62.6918 35.8894 62.7706 35.6848 62.9283C35.4803 63.0859 35.3365 63.2543 35.2534 63.4332L34.5375 63.1776C34.6653 62.8793 34.8358 62.647 35.0488 62.4808C35.264 62.3125 35.4984 62.1953 35.752 62.1293C36.0076 62.0611 36.2591 62.027 36.5062 62.027C36.6639 62.027 36.845 62.0462 37.0495 62.0845C37.2562 62.1207 37.4554 62.1964 37.6472 62.3114C37.8411 62.4265 38.002 62.6001 38.1298 62.8324C38.2576 63.0646 38.3216 63.3757 38.3216 63.7656V67H37.5673V66.3352H37.5289C37.4778 66.4418 37.3926 66.5558 37.2733 66.6772C37.1539 66.7987 36.9952 66.902 36.7971 66.9872C36.5989 67.0724 36.3571 67.1151 36.0716 67.1151ZM36.1866 66.4375C36.4849 66.4375 36.7363 66.3789 36.9409 66.2617C37.1476 66.1445 37.3031 65.9933 37.4075 65.8079C37.514 65.6225 37.5673 65.4276 37.5673 65.223V64.5327C37.5353 64.571 37.465 64.6062 37.3564 64.6381C37.2498 64.668 37.1262 64.6946 36.9856 64.718C36.8471 64.7393 36.7118 64.7585 36.5797 64.7756C36.4498 64.7905 36.3443 64.8033 36.2633 64.8139C36.0673 64.8395 35.8841 64.881 35.7136 64.9386C35.5453 64.994 35.4089 65.0781 35.3045 65.1911C35.2022 65.3018 35.1511 65.4531 35.1511 65.6449C35.1511 65.907 35.2481 66.1051 35.4419 66.2393C35.638 66.3714 35.8862 66.4375 36.1866 66.4375ZM41.2405 67V60.4545H41.9948V62.8707H42.0587C42.1141 62.7855 42.1908 62.6768 42.2888 62.5447C42.389 62.4105 42.5317 62.2912 42.7171 62.1868C42.9046 62.0803 43.1581 62.027 43.4777 62.027C43.8911 62.027 44.2554 62.1303 44.5708 62.337C44.8861 62.5437 45.1322 62.8366 45.3091 63.2159C45.4859 63.5952 45.5743 64.0426 45.5743 64.5582C45.5743 65.0781 45.4859 65.5288 45.3091 65.9102C45.1322 66.2894 44.8872 66.5835 44.574 66.7923C44.2608 66.9989 43.8996 67.1023 43.4905 67.1023C43.1752 67.1023 42.9227 67.0501 42.7331 66.9457C42.5434 66.8391 42.3975 66.7187 42.2952 66.5845C42.1929 66.4482 42.1141 66.3352 42.0587 66.2457H41.9692V67H41.2405ZM41.982 64.5455C41.982 64.9162 42.0363 65.2433 42.145 65.5266C42.2537 65.8079 42.4124 66.0284 42.6212 66.1882C42.83 66.3459 43.0857 66.4247 43.3882 66.4247C43.7036 66.4247 43.9667 66.3416 44.1777 66.1754C44.3907 66.0071 44.5505 65.7812 44.6571 65.4979C44.7657 65.2124 44.8201 64.8949 44.8201 64.5455C44.8201 64.2003 44.7668 63.8892 44.6603 63.6122C44.5559 63.3331 44.3971 63.1126 44.1841 62.9506C43.9731 62.7866 43.7079 62.7045 43.3882 62.7045C43.0814 62.7045 42.8236 62.7823 42.6148 62.9379C42.406 63.0913 42.2483 63.3065 42.1418 63.5835C42.0353 63.8583 41.982 64.179 41.982 64.5455ZM50.2263 67.1023C49.7533 67.1023 49.3453 66.9979 49.0023 66.7891C48.6613 66.5781 48.3982 66.2841 48.2128 65.907C48.0296 65.5277 47.938 65.0866 47.938 64.5838C47.938 64.081 48.0296 63.6378 48.2128 63.2543C48.3982 62.8686 48.656 62.5682 48.9863 62.353C49.3187 62.1357 49.7064 62.027 50.1496 62.027C50.4053 62.027 50.6578 62.0696 50.9071 62.1548C51.1564 62.2401 51.3833 62.3786 51.5878 62.5703C51.7924 62.7599 51.9554 63.0114 52.0768 63.3246C52.1983 63.6378 52.259 64.0234 52.259 64.4815V64.8011H48.4749V64.1491H51.492C51.492 63.8722 51.4366 63.625 51.3258 63.4077C51.2171 63.1903 51.0616 63.0188 50.8591 62.8931C50.6589 62.7674 50.4224 62.7045 50.1496 62.7045C49.8492 62.7045 49.5893 62.7791 49.3698 62.9283C49.1525 63.0753 48.9852 63.267 48.868 63.5036C48.7508 63.7401 48.6922 63.9936 48.6922 64.2642V64.6989C48.6922 65.0696 48.7562 65.3839 48.884 65.6417C49.014 65.8974 49.194 66.0923 49.4241 66.2266C49.6542 66.3587 49.9216 66.4247 50.2263 66.4247C50.4245 66.4247 50.6035 66.397 50.7633 66.3416C50.9252 66.2841 51.0648 66.1989 51.1819 66.0859C51.2991 65.9709 51.3897 65.8281 51.4536 65.6577L52.1823 65.8622C52.1056 66.1094 51.9767 66.3267 51.7956 66.5142C51.6145 66.6996 51.3907 66.8445 51.1244 66.9489C50.8581 67.0511 50.5587 67.1023 50.2263 67.1023ZM55.6006 60.4545V67H54.8464V60.4545H55.6006ZM61.8994 63.1903L61.2218 63.3821C61.1792 63.2692 61.1164 63.1594 61.0333 63.0529C60.9523 62.9442 60.8415 62.8548 60.7009 62.7844C60.5603 62.7141 60.3802 62.679 60.1608 62.679C59.8603 62.679 59.61 62.7482 59.4097 62.8867C59.2115 63.0231 59.1125 63.1967 59.1125 63.4077C59.1125 63.5952 59.1806 63.7433 59.317 63.8519C59.4534 63.9606 59.6664 64.0511 59.9562 64.1236L60.6849 64.3026C61.1238 64.4091 61.4509 64.5721 61.6661 64.7915C61.8813 65.0089 61.9889 65.2891 61.9889 65.6321C61.9889 65.9134 61.9079 66.1648 61.746 66.3864C61.5862 66.608 61.3625 66.7827 61.0748 66.9105C60.7872 67.0384 60.4527 67.1023 60.0713 67.1023C59.5706 67.1023 59.1561 66.9936 58.828 66.7763C58.4999 66.5589 58.2921 66.2415 58.2048 65.8239L58.9207 65.6449C58.9889 65.9091 59.1178 66.1072 59.3074 66.2393C59.4992 66.3714 59.7495 66.4375 60.0585 66.4375C60.41 66.4375 60.6892 66.3629 60.8958 66.2138C61.1046 66.0625 61.2091 65.8814 61.2091 65.6705C61.2091 65.5 61.1494 65.3572 61.0301 65.2422C60.9108 65.125 60.7275 65.0376 60.4804 64.9801L59.6622 64.7884C59.2126 64.6818 58.8823 64.5167 58.6714 64.293C58.4626 64.0671 58.3582 63.7848 58.3582 63.446C58.3582 63.169 58.436 62.924 58.5915 62.7109C58.7492 62.4979 58.9633 62.3306 59.2339 62.2092C59.5066 62.0877 59.8156 62.027 60.1608 62.027C60.6465 62.027 61.0279 62.1335 61.3049 62.3466C61.584 62.5597 61.7822 62.8409 61.8994 63.1903ZM65.114 67.0511C64.9563 67.0511 64.821 66.9947 64.7081 66.8817C64.5952 66.7688 64.5387 66.6335 64.5387 66.4759C64.5387 66.3182 64.5952 66.1829 64.7081 66.07C64.821 65.957 64.9563 65.9006 65.114 65.9006C65.2717 65.9006 65.4069 65.957 65.5199 66.07C65.6328 66.1829 65.6893 66.3182 65.6893 66.4759C65.6893 66.5803 65.6626 66.6761 65.6094 66.7635C65.5582 66.8509 65.489 66.9212 65.4016 66.9744C65.3164 67.0256 65.2205 67.0511 65.114 67.0511ZM70.4771 67.1023C70.0339 67.1023 69.6451 66.9968 69.3105 66.7859C68.9782 66.5749 68.7182 66.2798 68.5307 65.9006C68.3454 65.5213 68.2527 65.0781 68.2527 64.571C68.2527 64.0597 68.3454 63.6133 68.5307 63.2319C68.7182 62.8505 68.9782 62.5543 69.3105 62.3434C69.6451 62.1325 70.0339 62.027 70.4771 62.027C70.9203 62.027 71.3081 62.1325 71.6405 62.3434C71.975 62.5543 72.2349 62.8505 72.4203 63.2319C72.6078 63.6133 72.7015 64.0597 72.7015 64.571C72.7015 65.0781 72.6078 65.5213 72.4203 65.9006C72.2349 66.2798 71.975 66.5749 71.6405 66.7859C71.3081 66.9968 70.9203 67.1023 70.4771 67.1023ZM70.4771 66.4247C70.8137 66.4247 71.0907 66.3384 71.3081 66.1658C71.5254 65.9933 71.6863 65.7663 71.7907 65.4851C71.8951 65.2038 71.9473 64.8991 71.9473 64.571C71.9473 64.2429 71.8951 63.9371 71.7907 63.6538C71.6863 63.3704 71.5254 63.1413 71.3081 62.9666C71.0907 62.7919 70.8137 62.7045 70.4771 62.7045C70.1404 62.7045 69.8635 62.7919 69.6461 62.9666C69.4288 63.1413 69.2679 63.3704 69.1635 63.6538C69.0591 63.9371 69.0069 64.2429 69.0069 64.571C69.0069 64.8991 69.0591 65.2038 69.1635 65.4851C69.2679 65.7663 69.4288 65.9933 69.6461 66.1658C69.8635 66.3384 70.1404 66.4247 70.4771 66.4247ZM75.2929 67V62.0909H76.0216V62.8324H76.0727C76.1622 62.5895 76.3241 62.3924 76.5585 62.2411C76.7929 62.0898 77.0571 62.0142 77.3511 62.0142C77.4065 62.0142 77.4758 62.0153 77.5589 62.0174C77.642 62.0195 77.7048 62.0227 77.7474 62.027V62.794C77.7219 62.7876 77.6633 62.7781 77.5717 62.7653C77.4822 62.7504 77.3874 62.7429 77.2872 62.7429C77.0486 62.7429 76.8355 62.793 76.648 62.8931C76.4626 62.9911 76.3156 63.1275 76.207 63.3022C76.1004 63.4748 76.0472 63.6719 76.0472 63.8935V67H75.2929ZM81.9137 68.9432C81.5493 68.9432 81.2361 68.8963 80.974 68.8026C80.7119 68.7109 80.4936 68.5895 80.3188 68.4382C80.1462 68.2891 80.0088 68.1293 79.9065 67.9588L80.5074 67.5369C80.5756 67.6264 80.6619 67.7287 80.7663 67.8438C80.8707 67.9609 81.0134 68.0621 81.1945 68.1474C81.3778 68.2347 81.6175 68.2784 81.9137 68.2784C82.31 68.2784 82.637 68.1825 82.8948 67.9908C83.1526 67.799 83.2815 67.4986 83.2815 67.0895V66.0923H83.2176C83.1622 66.1818 83.0834 66.2926 82.9811 66.4247C82.881 66.5547 82.7361 66.6708 82.5465 66.7731C82.359 66.8732 82.1054 66.9233 81.7858 66.9233C81.3895 66.9233 81.0337 66.8295 80.7183 66.642C80.4051 66.4545 80.1569 66.1818 79.9737 65.8239C79.7926 65.4659 79.702 65.0312 79.702 64.5199C79.702 64.017 79.7904 63.5792 79.9673 63.2063C80.1441 62.8313 80.3902 62.5415 80.7056 62.337C81.0209 62.1303 81.3852 62.027 81.7986 62.027C82.1182 62.027 82.3717 62.0803 82.5592 62.1868C82.7489 62.2912 82.8938 62.4105 82.9939 62.5447C83.0962 62.6768 83.175 62.7855 83.2304 62.8707H83.3071V62.0909H84.0358V67.1406C84.0358 67.5625 83.9399 67.9055 83.7482 68.1697C83.5585 68.4361 83.3029 68.631 82.9811 68.7546C82.6615 68.8803 82.3057 68.9432 81.9137 68.9432ZM81.8881 66.2457C82.1906 66.2457 82.4463 66.1765 82.6551 66.038C82.8639 65.8995 83.0227 65.7003 83.1313 65.4403C83.24 65.1804 83.2943 64.8693 83.2943 64.5071C83.2943 64.1534 83.2411 63.8413 83.1345 63.5707C83.028 63.3001 82.8703 63.0881 82.6615 62.9347C82.4527 62.7812 82.1949 62.7045 81.8881 62.7045C81.5685 62.7045 81.3021 62.7855 81.0891 62.9474C80.8781 63.1094 80.7194 63.3267 80.6129 63.5994C80.5085 63.8722 80.4563 64.1747 80.4563 64.5071C80.4563 64.848 80.5095 65.1495 80.6161 65.4116C80.7247 65.6715 80.8845 65.8761 81.0955 66.0252C81.3085 66.1722 81.5727 66.2457 81.8881 66.2457Z" fill="white"/>
<path d="M57.153 26V17.135H58.263L60.183 24.35L62.148 17.135H63.213V26H62.373V18.83L60.528 26H59.853L58.008 18.83V26H57.153ZM64.3871 26L66.3521 17.135H67.5671L69.5021 26H68.4821L68.0021 23.945H65.8271L65.3771 26H64.3871ZM65.8571 23.42H67.9871L66.9371 18.29L65.8571 23.42ZM70.6735 26V17.135H73.3285C73.7085 17.135 74.0335 17.19 74.3035 17.3C74.5835 17.41 74.7935 17.6 74.9335 17.87C75.0835 18.13 75.1585 18.49 75.1585 18.95V24.065C75.1585 24.575 75.0785 24.97 74.9185 25.25C74.7585 25.53 74.5285 25.725 74.2285 25.835C73.9385 25.945 73.5985 26 73.2085 26H70.6735ZM71.6485 25.46H73.0885C73.4285 25.46 73.6985 25.37 73.8985 25.19C74.1085 25 74.2135 24.64 74.2135 24.11V19.07C74.2135 18.54 74.1085 18.18 73.8985 17.99C73.6985 17.8 73.4285 17.705 73.0885 17.705H71.6485V25.46ZM76.9138 26V17.135H80.7388V17.81H77.8888V20.99H80.1688V21.74H77.8888V25.325H80.7388V26H76.9138ZM84.8093 26V17.135H87.5543C88.0443 17.135 88.4443 17.255 88.7543 17.495C89.0643 17.725 89.2193 18.095 89.2193 18.605V19.685C89.2193 19.965 89.1793 20.215 89.0993 20.435C89.0193 20.645 88.9093 20.815 88.7693 20.945C88.6293 21.085 88.4593 21.18 88.2593 21.23C88.0693 21.27 87.9093 21.295 87.7793 21.305V21.275C87.9793 21.275 88.1693 21.3 88.3493 21.35C88.5393 21.39 88.6993 21.475 88.8293 21.605C88.9793 21.745 89.0943 21.925 89.1743 22.145C89.2643 22.355 89.3093 22.605 89.3093 22.895V24.185C89.3093 24.685 89.2293 25.065 89.0693 25.325C88.9093 25.585 88.6843 25.765 88.3943 25.865C88.1143 25.955 87.7793 26 87.3893 26H84.8093ZM85.7543 25.46H87.2243C87.4543 25.46 87.6543 25.43 87.8243 25.37C87.9943 25.3 88.1243 25.17 88.2143 24.98C88.3143 24.78 88.3643 24.49 88.3643 24.11V22.895C88.3643 22.415 88.2393 22.1 87.9893 21.95C87.7493 21.79 87.4493 21.71 87.0893 21.71H85.7543V25.46ZM85.7543 21.08H87.0593C87.4593 21.08 87.7643 20.97 87.9743 20.75C88.1943 20.53 88.3043 20.21 88.3043 19.79V18.77C88.3043 18.4 88.2043 18.13 88.0043 17.96C87.8143 17.78 87.5793 17.69 87.2993 17.69H85.7543V21.08ZM91.848 26V22.115L90.183 17.135H91.158L92.298 20.78L92.358 21.08L92.418 20.78L93.648 17.135H94.548L92.793 22.16V26H91.848ZM57.1777 44V35.135H58.6027V38.855H60.5077V35.135H61.9327V44H60.5077V39.935H58.6027V44H57.1777ZM65.7576 44.18C65.4176 44.18 65.1026 44.155 64.8126 44.105C64.5226 44.055 64.2726 43.955 64.0626 43.805C63.8526 43.655 63.6876 43.43 63.5676 43.13C63.4476 42.83 63.3876 42.425 63.3876 41.915V35.135H64.8276V42.29C64.8276 42.56 64.8676 42.77 64.9476 42.92C65.0376 43.06 65.1526 43.155 65.2926 43.205C65.4326 43.255 65.5876 43.28 65.7576 43.28C65.9276 43.28 66.0826 43.255 66.2226 43.205C66.3626 43.155 66.4726 43.06 66.5526 42.92C66.6426 42.77 66.6876 42.56 66.6876 42.29V35.135H68.1126V41.9C68.1126 42.41 68.0526 42.82 67.9326 43.13C67.8226 43.43 67.6626 43.655 67.4526 43.805C67.2426 43.955 66.9926 44.055 66.7026 44.105C66.4126 44.155 66.0976 44.18 65.7576 44.18ZM69.585 44V35.135H71.355L72.84 41.435L74.34 35.135H76.095V44H74.82V37.16L73.335 44H72.345L70.86 37.16V44H69.585ZM76.998 44L78.723 35.135H80.733L82.428 44H80.838L80.478 42.2H78.858L78.528 44H76.998ZM78.888 41.465H80.463L79.683 36.53L78.888 41.465ZM83.3398 44V35.135H84.5848L86.7898 41.105V35.135H88.0648V44H86.8048L84.6148 38.345V44H83.3398ZM91.6354 44.105C91.1454 44.105 90.7204 44.03 90.3604 43.88C90.0004 43.73 89.7254 43.465 89.5354 43.085C89.3554 42.705 89.2654 42.17 89.2654 41.48V40.97C89.5054 40.97 89.7504 40.97 90.0004 40.97C90.2504 40.97 90.4954 40.97 90.7354 40.97V41.6C90.7354 42.02 90.7754 42.345 90.8554 42.575C90.9354 42.805 91.0454 42.965 91.1854 43.055C91.3254 43.135 91.4854 43.175 91.6654 43.175C91.9554 43.175 92.1854 43.08 92.3554 42.89C92.5354 42.69 92.6254 42.32 92.6254 41.78C92.6254 41.38 92.5654 41.08 92.4454 40.88C92.3254 40.68 92.1354 40.52 91.8754 40.4C91.6254 40.27 91.3004 40.125 90.9004 39.965C90.5704 39.815 90.2854 39.64 90.0454 39.44C89.8054 39.24 89.6254 38.985 89.5054 38.675C89.3854 38.365 89.3254 37.98 89.3254 37.52C89.3254 36.96 89.3954 36.505 89.5354 36.155C89.6854 35.795 89.9354 35.535 90.2854 35.375C90.6354 35.205 91.1054 35.12 91.6954 35.12C92.4554 35.12 93.0354 35.295 93.4354 35.645C93.8354 35.985 94.0354 36.485 94.0354 37.145V38.18C93.8054 38.18 93.5704 38.18 93.3304 38.18C93.1004 38.18 92.8654 38.18 92.6254 38.18V37.565C92.6254 37.105 92.5504 36.775 92.4004 36.575C92.2604 36.365 92.0304 36.26 91.7104 36.26C91.3804 36.26 91.1404 36.36 90.9904 36.56C90.8504 36.75 90.7804 37.055 90.7804 37.475C90.7804 37.835 90.8504 38.115 90.9904 38.315C91.1304 38.505 91.3104 38.655 91.5304 38.765C91.7604 38.875 91.9954 38.975 92.2354 39.065C92.6854 39.235 93.0504 39.41 93.3304 39.59C93.6104 39.77 93.8154 40.01 93.9454 40.31C94.0754 40.61 94.1404 41.035 94.1404 41.585C94.1404 42.215 94.0354 42.715 93.8254 43.085C93.6254 43.445 93.3354 43.705 92.9554 43.865C92.5854 44.025 92.1454 44.105 91.6354 44.105Z" fill="#0D0F12"/>
<rect width="40" height="40" transform="translate(8 8)" fill="white"/>
<path fill-rule="evenodd" clip-rule="evenodd" d="M36.1475 14.493C33.6452 12.9859 30.93 12.2808 28.4604 12.2435C26.4192 12.2495 24.8481 12.5059 23.3158 12.9814C21.9024 13.4212 20.5932 14.089 19.3554 14.8999C18.7588 15.2905 18.1057 15.1325 17.8186 14.5332C17.5835 14.0413 17.7665 13.521 18.3482 13.1484C19.8761 12.1675 21.4948 11.3923 23.2518 10.9004C26.8551 9.8927 30.4212 10.0105 33.9427 11.2373C36.9494 12.2853 39.489 14.0428 41.5718 16.4592C42.0092 16.966 42.0018 17.5757 41.5451 17.9812C41.1151 18.3643 40.4709 18.2823 40.0424 17.7814C38.9222 16.4741 37.6249 15.3829 36.1475 14.493ZM15.9216 40.7111C14.9011 37.3929 14.4027 33.9971 14.4027 30.1362L14.4012 30.1377C14.4104 29.9132 14.418 29.6794 14.4258 29.4376V29.4376C14.4688 28.1138 14.5194 26.5544 14.8817 25.0216C15.4917 22.4368 16.7146 20.1828 18.6026 18.3225C20.7211 16.2355 23.2562 14.949 26.2183 14.5585C29.5375 14.1217 32.6216 14.7955 35.4378 16.6052C37.4894 17.9245 39.0754 19.6865 40.1704 21.8763C40.7833 23.1016 41.2534 24.3762 41.4096 25.7491C41.4602 26.2008 41.3055 26.5526 40.8979 26.7732C40.2552 27.1205 39.5842 26.7449 39.4295 25.9503C38.751 22.4666 36.9286 19.7595 33.8415 18.0139C29.8127 15.7361 25.7467 15.8405 21.8429 18.2927C18.909 20.1366 17.2413 22.9257 16.6715 26.3275C16.3129 28.4606 16.3442 30.6281 16.4796 32.7851C16.6387 35.294 17.1312 37.7447 17.8453 40.1536C17.9182 40.3966 17.9122 40.6992 17.8393 40.9437C17.7174 41.3521 17.3097 41.5742 16.8768 41.5534C16.4007 41.531 16.0913 41.2597 15.9216 40.7111ZM23.4765 36.7309C23.0019 34.6812 22.7505 32.6077 22.7058 30.5013L22.7073 30.5028C22.7281 30.1937 22.746 29.8842 22.7638 29.5747L22.7639 29.5744C22.8025 28.9066 22.8411 28.2387 22.9082 27.5736C23.3158 23.5204 27.849 21.4126 31.0967 23.7813C32.8106 25.032 33.4161 26.7731 33.2108 28.869C32.8269 32.7836 33.7211 36.403 35.8724 39.6944C36.2259 40.2373 36.6326 40.7456 37.0385 41.2528L37.0385 41.2528C37.1586 41.403 37.2787 41.553 37.3973 41.7039C37.9254 42.3762 37.6279 43.2512 36.8067 43.3839C36.3856 43.451 36.0702 43.2616 35.7995 42.9516C34.2358 41.1583 33.0367 39.1518 32.2333 36.9083C31.5891 35.1106 31.1756 33.2651 31.1354 31.354C31.1178 30.5187 31.161 29.6815 31.2041 28.8447C31.2158 28.6167 31.2275 28.3888 31.238 28.161C31.3199 26.4094 30.0776 25.0007 28.2819 24.8278C26.6781 24.6742 25.1844 25.8713 24.9523 27.5244C24.7411 29.0271 24.7158 30.5371 24.811 32.0517C25.0178 35.3312 25.8167 38.4601 27.2464 41.4147C27.5702 42.0844 27.948 42.7279 28.3256 43.3712L28.3257 43.3715C28.4876 43.6473 28.6495 43.923 28.8071 44.2008C29.0942 44.7076 28.9707 45.3233 28.514 45.6125C28.0275 45.9195 27.4309 45.7884 27.1185 45.3039C25.412 42.6564 24.1891 39.8047 23.4765 36.7309ZM35.3772 28.7534L35.3772 28.7537C35.3433 29.1902 35.3094 29.6267 35.3011 30.0633C35.2267 33.8973 36.4526 37.2648 38.9461 40.1701C39.0428 40.2834 39.1425 40.3938 39.2511 40.4966C39.6721 40.8961 40.2583 40.9051 40.654 40.5234C41.0542 40.1388 41.0646 39.5679 40.7091 39.1132C40.5864 38.9564 40.4618 38.8007 40.337 38.6449C39.9353 38.1431 39.5329 37.6404 39.1945 37.0978C37.6488 34.6248 37.1355 31.9192 37.3765 29.0183C37.6845 25.311 36.3768 22.2551 33.2466 20.1994C30.0985 18.1318 26.7704 18.0409 23.4394 19.861C21.8757 20.7152 20.7108 21.9733 19.8703 23.5385C19.543 24.1467 19.6798 24.7698 20.2139 25.0531C20.7376 25.3318 21.2955 25.1157 21.6332 24.5164C23.1478 21.8347 25.4597 20.5437 28.5155 20.6481C32.1694 20.7733 35.2372 23.8814 35.3785 27.5395C35.3834 27.6795 35.3818 27.8194 35.3801 27.9598V27.9599V27.9599V27.9599V27.9599V27.96V27.96V27.96C35.3793 28.0304 35.3785 28.1009 35.3785 28.1716H35.4172H35.4201C35.4073 28.3654 35.3923 28.5593 35.3772 28.7531L35.3772 28.7532L35.3772 28.7532L35.3772 28.7533L35.3772 28.7533L35.3772 28.7533L35.3772 28.7534ZM18.628 30.4925C18.5834 33.5111 19.0357 36.4612 19.8807 39.3591C20.3821 41.0778 21.056 42.7235 21.8148 44.338C22.0588 44.8552 22.6241 45.0788 23.121 44.8701C23.6358 44.6525 23.8693 44.086 23.6506 43.5345C23.4667 43.0709 23.2726 42.6106 23.0785 42.1503C22.6904 41.2297 22.3023 40.3091 21.9948 39.362C20.8924 35.9603 20.4297 32.4602 20.6395 28.881C20.6752 28.2654 20.2958 27.7719 19.7409 27.7168C19.1636 27.6601 18.6682 28.079 18.634 28.7096C18.6112 29.1227 18.6165 29.5366 18.6219 29.9507C18.6242 30.1312 18.6265 30.3118 18.6265 30.4925H18.628ZM10.2594 28.3922C10.2492 28.2216 10.2385 28.0433 10.2253 27.8541L10.2223 27.8526C10.2392 27.6748 10.2536 27.4869 10.2685 27.2925L10.2685 27.2921L10.2685 27.2919L10.2686 27.2916L10.2686 27.2915V27.2915C10.3021 26.854 10.3381 26.3834 10.4112 25.9192C10.9647 22.4056 12.3126 19.2409 14.5962 16.4966C15.0247 15.9823 15.6332 15.9182 16.1018 16.3117C16.5467 16.6844 16.5348 17.2717 16.1465 17.8024C16.0535 17.9294 15.9598 18.0562 15.866 18.1831L15.866 18.1831C15.3566 18.8724 14.8449 19.5647 14.4341 20.3112C12.9181 23.066 12.0418 25.9878 12.3334 29.1808C12.3884 29.7696 11.9823 30.2422 11.4303 30.2973C10.8888 30.351 10.4008 29.9515 10.3339 29.3672C10.299 29.0544 10.2801 28.739 10.2594 28.3922ZM45.778 27.9658C45.7765 25.4808 45.3153 23.0898 44.2962 20.8165C43.9629 20.0741 43.1714 19.8937 42.6388 20.4274C42.3234 20.7434 42.252 21.1638 42.4618 21.6289C43.0866 23.0197 43.4615 24.4761 43.6445 25.9862C43.8558 27.7347 43.8052 29.4729 43.4333 31.1991C43.2354 32.1189 43.9019 32.7628 44.7484 32.4871C45.1323 32.3618 45.3331 32.0622 45.3867 31.691C45.4062 31.5562 45.4259 31.422 45.4455 31.288L45.4456 31.2879C45.606 30.195 45.7634 29.1224 45.778 27.9658ZM27.5009 35.6517C27.0947 33.9553 26.9534 32.2305 26.9162 30.1003L26.9177 30.1018L26.9438 29.7612L26.9439 29.7605C26.9829 29.2485 27.0372 28.5361 27.0992 27.8256C27.129 27.4737 27.3268 27.2308 27.6512 27.0966C28.4664 26.7597 29.1523 27.3247 29.0482 28.2579C28.7863 30.5953 28.941 32.9073 29.4632 35.197C29.6075 35.832 29.3189 36.3627 28.7536 36.5029C28.1659 36.6489 27.6556 36.3001 27.5009 35.6517ZM39.4966 30.9978C39.565 33.0952 40.2911 34.9616 41.4842 36.6624C41.5765 36.7936 41.6747 36.9233 41.7833 37.0411C42.1478 37.4376 42.728 37.4987 43.1252 37.1901C43.5701 36.8443 43.6549 36.2778 43.3528 35.7993C43.2633 35.6572 43.172 35.5159 43.0807 35.3745C42.7822 34.9121 42.4834 34.4492 42.243 33.9583C41.7312 32.9119 41.5021 31.7849 41.4738 30.6177C41.4545 29.8202 40.7671 29.3491 40.0798 29.6443C39.7287 29.7948 39.5383 30.0691 39.4996 30.4418C39.4863 30.5676 39.4899 30.6955 39.4934 30.8231L39.4934 30.8231C39.495 30.8815 39.4966 30.9398 39.4966 30.9978ZM33.5307 44.6228C33.3433 44.9775 33.0234 45.1072 32.647 45.1355L32.6455 45.137C32.2914 45.1087 32.0132 44.9686 31.7915 44.6809C30.7828 43.3736 29.9185 41.9768 29.1969 40.4921C28.9009 39.8809 29.0645 39.3099 29.609 39.0342C30.1327 38.7688 30.6668 38.9865 30.9896 39.5783C31.0692 39.7242 31.148 39.8705 31.2269 40.0167C31.5242 40.568 31.8212 41.1186 32.1516 41.6488C32.4319 42.0973 32.7416 42.5282 33.0512 42.959C33.182 43.141 33.3129 43.3229 33.4414 43.5062C33.6914 43.861 33.7375 44.2322 33.5307 44.6228Z" fill="#0D0F12"/>
</g>
<defs>
<clipPath id="clip0_5_3">
<rect width="104" height="72" rx="6" fill="white"/>
</clipPath>
</defs>
</svg>
