<svg width="104" height="72" viewBox="0 0 104 72" fill="none" xmlns="http://www.w3.org/2000/svg">
<g clip-path="url(#clip0_5_70)">
<path d="M6 0.499987H98C101.038 0.499987 103.5 2.96242 103.5 5.99999V66C103.5 69.0376 101.038 71.5 98 71.5H6C2.96243 71.5 0.5 69.0376 0.5 66V5.99999C0.5 2.96242 2.96243 0.499987 6 0.499987Z" fill="white" stroke="#0D0F12" stroke-miterlimit="10"/>
<rect y="56" width="104" height="16" fill="#0D0F12"/>
<path d="M22.4088 67.1151C22.0977 67.1151 21.8154 67.0565 21.5618 66.9393C21.3083 66.82 21.1069 66.6484 20.9578 66.4247C20.8086 66.1989 20.7341 65.9261 20.7341 65.6065C20.7341 65.3253 20.7895 65.0973 20.9003 64.9226C21.0111 64.7457 21.1591 64.6072 21.3445 64.5071C21.5299 64.407 21.7344 64.3324 21.9581 64.2834C22.184 64.2322 22.4109 64.1918 22.6389 64.1619C22.9372 64.1236 23.179 64.0948 23.3644 64.0756C23.5519 64.0543 23.6883 64.0192 23.7735 63.9702C23.8608 63.9212 23.9045 63.8359 23.9045 63.7145V63.6889C23.9045 63.3736 23.8182 63.1286 23.6456 62.9538C23.4752 62.7791 23.2163 62.6918 22.869 62.6918C22.5089 62.6918 22.2266 62.7706 22.0221 62.9283C21.8175 63.0859 21.6737 63.2543 21.5906 63.4332L20.8747 63.1776C21.0025 62.8793 21.173 62.647 21.3861 62.4808C21.6013 62.3125 21.8356 62.1953 22.0892 62.1293C22.3449 62.0611 22.5963 62.027 22.8434 62.027C23.0011 62.027 23.1822 62.0462 23.3868 62.0845C23.5934 62.1207 23.7927 62.1964 23.9844 62.3114C24.1783 62.4265 24.3392 62.6001 24.467 62.8324C24.5949 63.0646 24.6588 63.3757 24.6588 63.7656V67H23.9045V66.3352H23.8662C23.815 66.4418 23.7298 66.5558 23.6105 66.6772C23.4912 66.7987 23.3324 66.902 23.1343 66.9872C22.9361 67.0724 22.6943 67.1151 22.4088 67.1151ZM22.5238 66.4375C22.8221 66.4375 23.0736 66.3789 23.2781 66.2617C23.4848 66.1445 23.6403 65.9933 23.7447 65.8079C23.8513 65.6225 23.9045 65.4276 23.9045 65.223V64.5327C23.8726 64.571 23.8023 64.6062 23.6936 64.6381C23.5871 64.668 23.4635 64.6946 23.3229 64.718C23.1844 64.7393 23.0491 64.7585 22.917 64.7756C22.787 64.7905 22.6815 64.8033 22.6006 64.8139C22.4045 64.8395 22.2213 64.881 22.0508 64.9386C21.8825 64.994 21.7461 65.0781 21.6417 65.1911C21.5395 65.3018 21.4883 65.4531 21.4883 65.6449C21.4883 65.907 21.5853 66.1051 21.7792 66.2393C21.9752 66.3714 22.2234 66.4375 22.5238 66.4375ZM27.4755 67V62.0909H28.2297V67H27.4755ZM27.859 61.2727C27.712 61.2727 27.5852 61.2227 27.4787 61.1225C27.3743 61.0224 27.3221 60.902 27.3221 60.7614C27.3221 60.6207 27.3743 60.5004 27.4787 60.4002C27.5852 60.3001 27.712 60.25 27.859 60.25C28.006 60.25 28.1317 60.3001 28.2361 60.4002C28.3427 60.5004 28.3959 60.6207 28.3959 60.7614C28.3959 60.902 28.3427 61.0224 28.2361 61.1225C28.1317 61.2227 28.006 61.2727 27.859 61.2727ZM31.8055 60.4545V67H31.0512V60.4545H31.8055ZM36.0716 67.1151C35.7605 67.1151 35.4782 67.0565 35.2246 66.9393C34.9711 66.82 34.7697 66.6484 34.6206 66.4247C34.4714 66.1989 34.3968 65.9261 34.3968 65.6065C34.3968 65.3253 34.4522 65.0973 34.563 64.9226C34.6738 64.7457 34.8219 64.6072 35.0073 64.5071C35.1927 64.407 35.3972 64.3324 35.6209 64.2834C35.8468 64.2322 36.0737 64.1918 36.3017 64.1619C36.6 64.1236 36.8418 64.0948 37.0272 64.0756C37.2147 64.0543 37.351 64.0192 37.4363 63.9702C37.5236 63.9212 37.5673 63.8359 37.5673 63.7145V63.6889C37.5673 63.3736 37.481 63.1286 37.3084 62.9538C37.138 62.7791 36.8791 62.6918 36.5318 62.6918C36.1717 62.6918 35.8894 62.7706 35.6848 62.9283C35.4803 63.0859 35.3365 63.2543 35.2534 63.4332L34.5375 63.1776C34.6653 62.8793 34.8358 62.647 35.0488 62.4808C35.264 62.3125 35.4984 62.1953 35.752 62.1293C36.0076 62.0611 36.2591 62.027 36.5062 62.027C36.6639 62.027 36.845 62.0462 37.0495 62.0845C37.2562 62.1207 37.4554 62.1964 37.6472 62.3114C37.8411 62.4265 38.002 62.6001 38.1298 62.8324C38.2576 63.0646 38.3216 63.3757 38.3216 63.7656V67H37.5673V66.3352H37.5289C37.4778 66.4418 37.3926 66.5558 37.2733 66.6772C37.1539 66.7987 36.9952 66.902 36.7971 66.9872C36.5989 67.0724 36.3571 67.1151 36.0716 67.1151ZM36.1866 66.4375C36.4849 66.4375 36.7363 66.3789 36.9409 66.2617C37.1476 66.1445 37.3031 65.9933 37.4075 65.8079C37.514 65.6225 37.5673 65.4276 37.5673 65.223V64.5327C37.5353 64.571 37.465 64.6062 37.3564 64.6381C37.2498 64.668 37.1262 64.6946 36.9856 64.718C36.8471 64.7393 36.7118 64.7585 36.5797 64.7756C36.4498 64.7905 36.3443 64.8033 36.2633 64.8139C36.0673 64.8395 35.8841 64.881 35.7136 64.9386C35.5453 64.994 35.4089 65.0781 35.3045 65.1911C35.2022 65.3018 35.1511 65.4531 35.1511 65.6449C35.1511 65.907 35.2481 66.1051 35.4419 66.2393C35.638 66.3714 35.8862 66.4375 36.1866 66.4375ZM41.2405 67V60.4545H41.9948V62.8707H42.0587C42.1141 62.7855 42.1908 62.6768 42.2888 62.5447C42.389 62.4105 42.5317 62.2912 42.7171 62.1868C42.9046 62.0803 43.1581 62.027 43.4777 62.027C43.8911 62.027 44.2554 62.1303 44.5708 62.337C44.8861 62.5437 45.1322 62.8366 45.3091 63.2159C45.4859 63.5952 45.5743 64.0426 45.5743 64.5582C45.5743 65.0781 45.4859 65.5288 45.3091 65.9102C45.1322 66.2894 44.8872 66.5835 44.574 66.7923C44.2608 66.9989 43.8996 67.1023 43.4905 67.1023C43.1752 67.1023 42.9227 67.0501 42.7331 66.9457C42.5434 66.8391 42.3975 66.7187 42.2952 66.5845C42.1929 66.4482 42.1141 66.3352 42.0587 66.2457H41.9692V67H41.2405ZM41.982 64.5455C41.982 64.9162 42.0363 65.2433 42.145 65.5266C42.2537 65.8079 42.4124 66.0284 42.6212 66.1882C42.83 66.3459 43.0857 66.4247 43.3882 66.4247C43.7036 66.4247 43.9667 66.3416 44.1777 66.1754C44.3907 66.0071 44.5505 65.7812 44.6571 65.4979C44.7657 65.2124 44.8201 64.8949 44.8201 64.5455C44.8201 64.2003 44.7668 63.8892 44.6603 63.6122C44.5559 63.3331 44.3971 63.1126 44.1841 62.9506C43.9731 62.7866 43.7079 62.7045 43.3882 62.7045C43.0814 62.7045 42.8236 62.7823 42.6148 62.9379C42.406 63.0913 42.2483 63.3065 42.1418 63.5835C42.0353 63.8583 41.982 64.179 41.982 64.5455ZM50.2263 67.1023C49.7533 67.1023 49.3453 66.9979 49.0023 66.7891C48.6613 66.5781 48.3982 66.2841 48.2128 65.907C48.0296 65.5277 47.938 65.0866 47.938 64.5838C47.938 64.081 48.0296 63.6378 48.2128 63.2543C48.3982 62.8686 48.656 62.5682 48.9863 62.353C49.3187 62.1357 49.7064 62.027 50.1496 62.027C50.4053 62.027 50.6578 62.0696 50.9071 62.1548C51.1564 62.2401 51.3833 62.3786 51.5878 62.5703C51.7924 62.7599 51.9554 63.0114 52.0768 63.3246C52.1983 63.6378 52.259 64.0234 52.259 64.4815V64.8011H48.4749V64.1491H51.492C51.492 63.8722 51.4366 63.625 51.3258 63.4077C51.2171 63.1903 51.0616 63.0188 50.8591 62.8931C50.6589 62.7674 50.4224 62.7045 50.1496 62.7045C49.8492 62.7045 49.5893 62.7791 49.3698 62.9283C49.1525 63.0753 48.9852 63.267 48.868 63.5036C48.7508 63.7401 48.6922 63.9936 48.6922 64.2642V64.6989C48.6922 65.0696 48.7562 65.3839 48.884 65.6417C49.014 65.8974 49.194 66.0923 49.4241 66.2266C49.6542 66.3587 49.9216 66.4247 50.2263 66.4247C50.4245 66.4247 50.6035 66.397 50.7633 66.3416C50.9252 66.2841 51.0648 66.1989 51.1819 66.0859C51.2991 65.9709 51.3897 65.8281 51.4536 65.6577L52.1823 65.8622C52.1056 66.1094 51.9767 66.3267 51.7956 66.5142C51.6145 66.6996 51.3907 66.8445 51.1244 66.9489C50.8581 67.0511 50.5587 67.1023 50.2263 67.1023ZM55.6006 60.4545V67H54.8464V60.4545H55.6006ZM61.8994 63.1903L61.2218 63.3821C61.1792 63.2692 61.1164 63.1594 61.0333 63.0529C60.9523 62.9442 60.8415 62.8548 60.7009 62.7844C60.5603 62.7141 60.3802 62.679 60.1608 62.679C59.8603 62.679 59.61 62.7482 59.4097 62.8867C59.2115 63.0231 59.1125 63.1967 59.1125 63.4077C59.1125 63.5952 59.1806 63.7433 59.317 63.8519C59.4534 63.9606 59.6664 64.0511 59.9562 64.1236L60.6849 64.3026C61.1238 64.4091 61.4509 64.5721 61.6661 64.7915C61.8813 65.0089 61.9889 65.2891 61.9889 65.6321C61.9889 65.9134 61.9079 66.1648 61.746 66.3864C61.5862 66.608 61.3625 66.7827 61.0748 66.9105C60.7872 67.0384 60.4527 67.1023 60.0713 67.1023C59.5706 67.1023 59.1561 66.9936 58.828 66.7763C58.4999 66.5589 58.2921 66.2415 58.2048 65.8239L58.9207 65.6449C58.9889 65.9091 59.1178 66.1072 59.3074 66.2393C59.4992 66.3714 59.7495 66.4375 60.0585 66.4375C60.41 66.4375 60.6892 66.3629 60.8958 66.2138C61.1046 66.0625 61.2091 65.8814 61.2091 65.6705C61.2091 65.5 61.1494 65.3572 61.0301 65.2422C60.9108 65.125 60.7275 65.0376 60.4804 64.9801L59.6622 64.7884C59.2126 64.6818 58.8823 64.5167 58.6714 64.293C58.4626 64.0671 58.3582 63.7848 58.3582 63.446C58.3582 63.169 58.436 62.924 58.5915 62.7109C58.7492 62.4979 58.9633 62.3306 59.2339 62.2092C59.5066 62.0877 59.8156 62.027 60.1608 62.027C60.6465 62.027 61.0279 62.1335 61.3049 62.3466C61.584 62.5597 61.7822 62.8409 61.8994 63.1903ZM65.114 67.0511C64.9563 67.0511 64.821 66.9947 64.7081 66.8817C64.5952 66.7688 64.5387 66.6335 64.5387 66.4759C64.5387 66.3182 64.5952 66.1829 64.7081 66.07C64.821 65.957 64.9563 65.9006 65.114 65.9006C65.2717 65.9006 65.4069 65.957 65.5199 66.07C65.6328 66.1829 65.6893 66.3182 65.6893 66.4759C65.6893 66.5803 65.6626 66.6761 65.6094 66.7635C65.5582 66.8509 65.489 66.9212 65.4016 66.9744C65.3164 67.0256 65.2205 67.0511 65.114 67.0511ZM70.4771 67.1023C70.0339 67.1023 69.6451 66.9968 69.3105 66.7859C68.9782 66.5749 68.7182 66.2798 68.5307 65.9006C68.3454 65.5213 68.2527 65.0781 68.2527 64.571C68.2527 64.0597 68.3454 63.6133 68.5307 63.2319C68.7182 62.8505 68.9782 62.5543 69.3105 62.3434C69.6451 62.1325 70.0339 62.027 70.4771 62.027C70.9203 62.027 71.3081 62.1325 71.6405 62.3434C71.975 62.5543 72.2349 62.8505 72.4203 63.2319C72.6078 63.6133 72.7015 64.0597 72.7015 64.571C72.7015 65.0781 72.6078 65.5213 72.4203 65.9006C72.2349 66.2798 71.975 66.5749 71.6405 66.7859C71.3081 66.9968 70.9203 67.1023 70.4771 67.1023ZM70.4771 66.4247C70.8137 66.4247 71.0907 66.3384 71.3081 66.1658C71.5254 65.9933 71.6863 65.7663 71.7907 65.4851C71.8951 65.2038 71.9473 64.8991 71.9473 64.571C71.9473 64.2429 71.8951 63.9371 71.7907 63.6538C71.6863 63.3704 71.5254 63.1413 71.3081 62.9666C71.0907 62.7919 70.8137 62.7045 70.4771 62.7045C70.1404 62.7045 69.8635 62.7919 69.6461 62.9666C69.4288 63.1413 69.2679 63.3704 69.1635 63.6538C69.0591 63.9371 69.0069 64.2429 69.0069 64.571C69.0069 64.8991 69.0591 65.2038 69.1635 65.4851C69.2679 65.7663 69.4288 65.9933 69.6461 66.1658C69.8635 66.3384 70.1404 66.4247 70.4771 66.4247ZM75.2929 67V62.0909H76.0216V62.8324H76.0727C76.1622 62.5895 76.3241 62.3924 76.5585 62.2411C76.7929 62.0898 77.0571 62.0142 77.3511 62.0142C77.4065 62.0142 77.4758 62.0153 77.5589 62.0174C77.642 62.0195 77.7048 62.0227 77.7474 62.027V62.794C77.7219 62.7876 77.6633 62.7781 77.5717 62.7653C77.4822 62.7504 77.3874 62.7429 77.2872 62.7429C77.0486 62.7429 76.8355 62.793 76.648 62.8931C76.4626 62.9911 76.3156 63.1275 76.207 63.3022C76.1004 63.4748 76.0472 63.6719 76.0472 63.8935V67H75.2929ZM81.9137 68.9432C81.5493 68.9432 81.2361 68.8963 80.974 68.8026C80.7119 68.7109 80.4936 68.5895 80.3188 68.4382C80.1462 68.2891 80.0088 68.1293 79.9065 67.9588L80.5074 67.5369C80.5756 67.6264 80.6619 67.7287 80.7663 67.8438C80.8707 67.9609 81.0134 68.0621 81.1945 68.1474C81.3778 68.2347 81.6175 68.2784 81.9137 68.2784C82.31 68.2784 82.637 68.1825 82.8948 67.9908C83.1526 67.799 83.2815 67.4986 83.2815 67.0895V66.0923H83.2176C83.1622 66.1818 83.0834 66.2926 82.9811 66.4247C82.881 66.5547 82.7361 66.6708 82.5465 66.7731C82.359 66.8732 82.1054 66.9233 81.7858 66.9233C81.3895 66.9233 81.0337 66.8295 80.7183 66.642C80.4051 66.4545 80.1569 66.1818 79.9737 65.8239C79.7926 65.4659 79.702 65.0312 79.702 64.5199C79.702 64.017 79.7904 63.5792 79.9673 63.2063C80.1441 62.8313 80.3902 62.5415 80.7056 62.337C81.0209 62.1303 81.3852 62.027 81.7986 62.027C82.1182 62.027 82.3717 62.0803 82.5592 62.1868C82.7489 62.2912 82.8938 62.4105 82.9939 62.5447C83.0962 62.6768 83.175 62.7855 83.2304 62.8707H83.3071V62.0909H84.0358V67.1406C84.0358 67.5625 83.9399 67.9055 83.7482 68.1697C83.5585 68.4361 83.3029 68.631 82.9811 68.7546C82.6615 68.8803 82.3057 68.9432 81.9137 68.9432ZM81.8881 66.2457C82.1906 66.2457 82.4463 66.1765 82.6551 66.038C82.8639 65.8995 83.0227 65.7003 83.1313 65.4403C83.24 65.1804 83.2943 64.8693 83.2943 64.5071C83.2943 64.1534 83.2411 63.8413 83.1345 63.5707C83.028 63.3001 82.8703 63.0881 82.6615 62.9347C82.4527 62.7812 82.1949 62.7045 81.8881 62.7045C81.5685 62.7045 81.3021 62.7855 81.0891 62.9474C80.8781 63.1094 80.7194 63.3267 80.6129 63.5994C80.5085 63.8722 80.4563 64.1747 80.4563 64.5071C80.4563 64.848 80.5095 65.1495 80.6161 65.4116C80.7247 65.6715 80.8845 65.8761 81.0955 66.0252C81.3085 66.1722 81.5727 66.2457 81.8881 66.2457Z" fill="white"/>
<path d="M65.6935 19V11.908H66.5815L68.1175 17.68L69.6895 11.908H70.5415V19H69.8695V13.264L68.3935 19H67.8535L66.3775 13.264V19H65.6935ZM71.4808 19L73.0528 11.908H74.0248L75.5728 19H74.7568L74.3728 17.356H72.6328L72.2728 19H71.4808ZM72.6568 16.936H74.3608L73.5208 12.832L72.6568 16.936ZM76.5099 19V11.908H78.6339C78.9379 11.908 79.1979 11.952 79.4139 12.04C79.6379 12.128 79.8059 12.28 79.9179 12.496C80.0379 12.704 80.0979 12.992 80.0979 13.36V17.452C80.0979 17.86 80.0339 18.176 79.9059 18.4C79.7779 18.624 79.5939 18.78 79.3539 18.868C79.1219 18.956 78.8499 19 78.5379 19H76.5099ZM77.2899 18.568H78.4419C78.7139 18.568 78.9299 18.496 79.0899 18.352C79.2579 18.2 79.3419 17.912 79.3419 17.488V13.456C79.3419 13.032 79.2579 12.744 79.0899 12.592C78.9299 12.44 78.7139 12.364 78.4419 12.364H77.2899V18.568ZM81.5021 19V11.908H84.5621V12.448H82.2821V14.992H84.1061V15.592H82.2821V18.46H84.5621V19H81.5021ZM57.174 33V25.908H59.37C59.778 25.908 60.106 26.004 60.354 26.196C60.602 26.38 60.726 26.676 60.726 27.084V28.392C60.726 28.664 60.686 28.92 60.606 29.16C60.526 29.392 60.378 29.58 60.162 29.724C59.946 29.868 59.634 29.94 59.226 29.94H57.954V33H57.174ZM57.954 29.496H58.998C59.318 29.496 59.558 29.4 59.718 29.208C59.886 29.008 59.97 28.704 59.97 28.296V27.372C59.97 27.02 59.894 26.764 59.742 26.604C59.59 26.436 59.406 26.352 59.19 26.352H57.954V29.496ZM61.8146 33V25.908H64.0466C64.4466 25.908 64.7706 26.004 65.0186 26.196C65.2666 26.38 65.3906 26.676 65.3906 27.084V28.236C65.3906 28.644 65.2666 28.96 65.0186 29.184C64.7786 29.408 64.4506 29.528 64.0346 29.544V29.532C64.2906 29.548 64.4826 29.64 64.6106 29.808C64.7386 29.968 64.8506 30.22 64.9466 30.564L65.6786 33H64.8386L64.1906 30.612C64.1266 30.388 64.0426 30.188 63.9386 30.012C63.8426 29.828 63.6826 29.736 63.4586 29.736H62.5946V33H61.8146ZM62.5946 29.196H63.6506C64.0186 29.196 64.2746 29.112 64.4186 28.944C64.5706 28.768 64.6466 28.512 64.6466 28.176V27.216C64.6466 26.92 64.5746 26.704 64.4306 26.568C64.2946 26.424 64.0826 26.352 63.7946 26.352H62.5946V29.196ZM66.7833 33V25.908H67.5393V33H66.7833ZM69.0451 33V25.908H69.9331L71.4691 31.68L73.0411 25.908H73.8931V33H73.2211V27.264L71.7451 33H71.2051L69.7291 27.264V33H69.0451ZM74.8323 33L76.4043 25.908H77.3763L78.9243 33H78.1083L77.7243 31.356H75.9843L75.6243 33H74.8323ZM76.0083 30.936H77.7123L76.8723 26.832L76.0083 30.936ZM79.8615 33V25.908H82.0935C82.4935 25.908 82.8175 26.004 83.0655 26.196C83.3135 26.38 83.4375 26.676 83.4375 27.084V28.236C83.4375 28.644 83.3135 28.96 83.0655 29.184C82.8255 29.408 82.4975 29.528 82.0815 29.544V29.532C82.3375 29.548 82.5295 29.64 82.6575 29.808C82.7855 29.968 82.8975 30.22 82.9935 30.564L83.7255 33H82.8855L82.2375 30.612C82.1735 30.388 82.0895 30.188 81.9855 30.012C81.8895 29.828 81.7295 29.736 81.5055 29.736H80.6415V33H79.8615ZM80.6415 29.196H81.6975C82.0655 29.196 82.3215 29.112 82.4655 28.944C82.6175 28.768 82.6935 28.512 82.6935 28.176V27.216C82.6935 26.92 82.6215 26.704 82.4775 26.568C82.3415 26.424 82.1295 26.352 81.8415 26.352H80.6415V29.196ZM84.8302 33V25.908H85.5862V33H84.8302ZM87.0919 33V25.908H87.8359V32.46H89.8159V33H87.0919ZM91.012 33V29.892L89.68 25.908H90.46L91.372 28.824L91.42 29.064L91.468 28.824L92.452 25.908H93.172L91.768 29.928V33H91.012ZM67.8029 47V39.908H69.9989C70.3909 39.908 70.7109 40.004 70.9589 40.196C71.2069 40.38 71.3309 40.676 71.3309 41.084V41.948C71.3309 42.172 71.2989 42.372 71.2349 42.548C71.1709 42.716 71.0829 42.852 70.9709 42.956C70.8589 43.068 70.7229 43.144 70.5629 43.184C70.4109 43.216 70.2829 43.236 70.1789 43.244V43.22C70.3389 43.22 70.4909 43.24 70.6349 43.28C70.7869 43.312 70.9149 43.38 71.0189 43.484C71.1389 43.596 71.2309 43.74 71.2949 43.916C71.3669 44.084 71.4029 44.284 71.4029 44.516V45.548C71.4029 45.948 71.3389 46.252 71.2109 46.46C71.0829 46.668 70.9029 46.812 70.6709 46.892C70.4469 46.964 70.1789 47 69.8669 47H67.8029ZM68.5589 46.568H69.7349C69.9189 46.568 70.0789 46.544 70.2149 46.496C70.3509 46.44 70.4549 46.336 70.5269 46.184C70.6069 46.024 70.6469 45.792 70.6469 45.488V44.516C70.6469 44.132 70.5469 43.88 70.3469 43.76C70.1549 43.632 69.9149 43.568 69.6269 43.568H68.5589V46.568ZM68.5589 43.064H69.6029C69.9229 43.064 70.1669 42.976 70.3349 42.8C70.5109 42.624 70.5989 42.368 70.5989 42.032V41.216C70.5989 40.92 70.5189 40.704 70.3589 40.568C70.2069 40.424 70.0189 40.352 69.7949 40.352H68.5589V43.064ZM73.4339 47V43.892L72.1019 39.908H72.8819L73.7939 42.824L73.8419 43.064L73.8899 42.824L74.8739 39.908H75.5939L74.1899 43.928V47H73.4339ZM78.1359 47L79.5159 39.908H81.1239L82.4799 47H81.2079L80.9199 45.56H79.6239L79.3599 47H78.1359ZM79.6479 44.972H80.9079L80.2839 41.024L79.6479 44.972ZM83.2094 47V39.908H84.3494V47H83.2094Z" fill="#0D0F12"/>
<path fill-rule="evenodd" clip-rule="evenodd" d="M20 6.74787C20 6.33483 20.3348 6 20.7479 6C21.1609 6 21.4958 6.33484 21.4958 6.74788V20H27.2521V6.74787C27.2521 6.33483 27.5869 6 28 6C28.413 6 28.7479 6.33484 28.7479 6.74788V20H34.5042V6.74787C34.5042 6.33483 34.839 6 35.2521 6C35.6651 6 36 6.33484 36 6.74788V20H49.2491C49.6638 20 50 20.3362 50 20.7509C50 21.1656 49.6638 21.5018 49.2491 21.5018H36V27.249H49.2491C49.6638 27.249 50 27.5852 50 27.9999C50 28.4147 49.6638 28.7509 49.2491 28.7509H36V34.4785H49.2393C49.6594 34.4785 50 34.8191 50 35.2393C50 35.6594 49.6594 36 49.2393 36H36V49.2521C36 49.6652 35.6651 50 35.2521 50C34.839 50 34.5042 49.6652 34.5042 49.2521V36H28.7479V49.2521C28.7479 49.6652 28.413 50 28 50C27.5869 50 27.2521 49.6652 27.2521 49.2521V36H21.4958V49.2521C21.4958 49.6652 21.1609 50 20.7479 50C20.3348 50 20 49.6652 20 49.2521V36H6.76075C6.3406 36 6 35.6594 6 35.2393C6 34.8191 6.3406 34.4785 6.76075 34.4785H20V28.7509H6.75092C6.3362 28.7509 6 28.4147 6 27.9999C6 27.5852 6.3362 27.249 6.75092 27.249H20V21.5018H6.75092C6.3362 21.5018 6 21.1656 6 20.7509C6 20.3362 6.3362 20 6.75092 20H20V6.74787ZM21.4958 21.5018V27.249H27.2521V21.5018H21.4958ZM28.7479 21.5018V27.249H34.5042V21.5018H28.7479ZM34.5042 28.7509H28.7479V34.4785H34.5042V28.7509ZM27.2521 34.4785V28.7509H21.4958V34.4785H27.2521Z" fill="#0D0F12"/>
<g clip-path="url(#clip1_5_70)">
<rect x="12" y="12" width="32" height="32" rx="6" fill="#0D0F12"/>
<path d="M26.0613 24.464L22.3013 33.616C22.2586 33.744 22.1839 33.8453 22.0773 33.92C21.9706 33.9947 21.8586 34.032 21.7413 34.032C21.5386 34.032 21.3893 33.9787 21.2933 33.872C21.1973 33.7653 21.1493 33.6373 21.1493 33.488C21.1386 33.4133 21.1493 33.3333 21.1813 33.248L25.3253 23.168C25.3786 23.0187 25.4586 22.912 25.5653 22.848C25.6826 22.7733 25.8106 22.7413 25.9493 22.752C26.0879 22.752 26.2106 22.7893 26.3173 22.864C26.4346 22.9387 26.5146 23.04 26.5573 23.168L30.6853 33.152C30.7173 33.2373 30.7333 33.3227 30.7333 33.408C30.7333 33.6 30.6693 33.7547 30.5413 33.872C30.4133 33.9787 30.2693 34.032 30.1093 34.032C29.9813 34.032 29.8639 33.9947 29.7573 33.92C29.6506 33.8453 29.5706 33.7387 29.5173 33.6L25.7093 24.448L26.0613 24.464ZM23.1013 31.008L23.6453 29.76H28.3973L28.6373 31.008H23.1013ZM33.8141 33.344C33.8141 33.5253 33.7448 33.68 33.6061 33.808C33.4781 33.936 33.3235 34 33.1421 34C32.9395 34 32.7795 33.936 32.6621 33.808C32.5448 33.68 32.4861 33.5253 32.4861 33.344V23.456C32.4861 23.264 32.5501 23.1093 32.6781 22.992C32.8061 22.864 32.9661 22.8 33.1581 22.8C33.3395 22.8 33.4941 22.864 33.6221 22.992C33.7501 23.1093 33.8141 23.264 33.8141 23.456V33.344Z" fill="white"/>
<rect x="16" y="16" width="24" height="24" rx="4" stroke="white"/>
</g>
</g>
<defs>
<clipPath id="clip0_5_70">
<rect width="104" height="72" rx="6" fill="white"/>
</clipPath>
<clipPath id="clip1_5_70">
<rect x="12" y="12" width="32" height="32" rx="6" fill="white"/>
</clipPath>
</defs>
</svg>
